<?xml version="1.0" encoding="UTF-8" standalone="no"?>
<svg
   xmlns:dc="http://purl.org/dc/elements/1.1/"
   xmlns:cc="http://creativecommons.org/ns#"
   xmlns:rdf="http://www.w3.org/1999/02/22-rdf-syntax-ns#"
   xmlns:svg="http://www.w3.org/2000/svg"
   xmlns="http://www.w3.org/2000/svg"
   xmlns:sodipodi="http://sodipodi.sourceforge.net/DTD/sodipodi-0.dtd"
   xmlns:inkscape="http://www.inkscape.org/namespaces/inkscape"
   id="svg8"
   version="1.1"
   viewBox="0 0 37 26"
   height="26mm"
   width="37mm"
   sodipodi:docname="twd.svg"
   inkscape:version="0.92.3 (2405546, 2018-03-11)">
  <sodipodi:namedview
     pagecolor="#ffffff"
     bordercolor="#666666"
     borderopacity="1"
     objecttolerance="10"
     gridtolerance="10"
     guidetolerance="10"
     inkscape:pageopacity="0"
     inkscape:pageshadow="2"
     inkscape:window-width="1920"
     inkscape:window-height="1001"
     id="namedview22"
     showgrid="false"
     inkscape:zoom="2.4016026"
     inkscape:cx="69.92126"
     inkscape:cy="49.133858"
     inkscape:window-x="-9"
     inkscape:window-y="-9"
     inkscape:window-maximized="1"
     inkscape:current-layer="layer1" />
  <defs
     id="defs2" />
  <metadata
     id="metadata5">
    <rdf:RDF>
      <cc:Work
         rdf:about="">
        <dc:format>image/svg+xml</dc:format>
        <dc:type
           rdf:resource="http://purl.org/dc/dcmitype/StillImage" />
        <dc:title></dc:title>
      </cc:Work>
    </rdf:RDF>
  </metadata>
  <g
     transform="translate(0,-271)"
     id="layer1">
    <g
       aria-label="TWD"
       transform="matrix(0.31849969,0,0,0.31277092,31.592102,304.69516)"
       style="font-style:normal;font-weight:normal;font-size:40px;line-height:1;font-family:sans-serif;letter-spacing:0px;word-spacing:0px;fill:none;fill-opacity:1;stroke:#000000;stroke-opacity:1"
       id="flowRoot4518">
      <path
         d="m -71.600586,-44.377881 h -15.253906 v -6.503906 h 2.34375 v -14.160157 h -3.125 v 4.941407 h -5.097656 V -71.54585 h 26.933593 v 11.445313 h -5.097656 v -4.941407 h -3.105469 v 14.160157 h 2.402344 z"
         style="font-style:normal;font-variant:normal;font-weight:800;font-stretch:normal;line-height:1;font-family:'Rockwell Extra Bold';-inkscape-font-specification:'Rockwell Extra Bold, Ultra-Bold';text-align:center;text-anchor:middle;fill:none;stroke:#000000;stroke-opacity:1"
         id="path4532" />
      <path
         d="m -45.838867,-44.143506 h -8.554688 l -7.65625,-20.898438 h -1.875 v -6.503906 h 14.082032 v 6.503906 h -2.03125 l 3.203125,11.699219 4.0625,-11.699219 h -2.011719 v -6.503906 h 11.835937 v 6.503906 h -2.011718 l 4.121093,11.699219 3.242188,-11.699219 h -1.953125 v -6.503906 h 10.957031 v 6.503906 h -1.875 l -7.734375,20.898438 h -8.4375 l -3.671875,-10.46875 z"
         style="font-style:normal;font-variant:normal;font-weight:800;font-stretch:normal;line-height:1;font-family:'Rockwell Extra Bold';-inkscape-font-specification:'Rockwell Extra Bold, Ultra-Bold';text-align:center;text-anchor:middle;fill:none;stroke:#000000;stroke-opacity:1"
         id="path4534" />
      <path
         d="m -5.4287109,-65.041944 v 14.160157 h 0.9960937 q 3.71093751,0 4.82421876,-1.972657 1.09375004,-1.972656 1.09375004,-4.960937 0,-1.796875 -0.46875,-3.554688 -0.48828129,-1.757812 -1.71875004,-2.714843 -1.21093746,-0.957032 -4.33593746,-0.957032 z m 0,20.664063 H -18.06543 v -6.503906 h 2.128907 v -14.160157 h -2.128907 v -6.503906 h 13.0078128 q 4.45312501,0 7.265625,0.546875 2.8320313,0.546875 5.3320313,2.246094 2.4804689,1.71875 3.9062499,4.648437 0.703125,1.40625 1.074219,3.007813 0.371094,1.601562 0.371094,3.359375 0,3.535156 -1.503907,6.445312 -1.4843747,2.890625 -3.7695309,4.433594 -2.2265625,1.542969 -4.8828125,2.011719 -2.63671879,0.46875 -8.1640625,0.46875 z"
         style="font-style:normal;font-variant:normal;font-weight:800;font-stretch:normal;line-height:1;font-family:'Rockwell Extra Bold';-inkscape-font-specification:'Rockwell Extra Bold, Ultra-Bold';text-align:center;text-anchor:middle;fill:none;stroke:#000000;stroke-opacity:1"
         id="path4536" />
    </g>
    <g
       aria-label="World Taekwondo"
       transform="matrix(0.10021825,0,0,0.10021825,15.078498,300.6534)"
       style="font-style:normal;font-weight:normal;font-size:40px;line-height:1.25;font-family:sans-serif;letter-spacing:0px;word-spacing:0px;fill:#000000;fill-opacity:1;stroke:none"
       id="flowRoot4530">
      <path
         d="m -89.358398,-82.385694 -7.910157,28.007813 h -3.847655 l -5.76172,-20.46875 q -0.37109,-1.308594 -0.44922,-2.851563 h -0.0781 q -0.11719,1.445313 -0.50782,2.8125 l -5.80078,20.507813 h -3.80859 l -8.20313,-28.007813 h 3.61329 l 5.95703,21.484375 q 0.37109,1.347657 0.46875,2.8125 h 0.0977 q 0.0977,-1.035156 0.60547,-2.8125 l 6.19141,-21.484375 h 3.14453 l 5.937499,21.640625 q 0.3125,1.113282 0.46875,2.617188 h 0.07813 q 0.07813,-1.015625 0.527344,-2.695313 l 5.722656,-21.5625 z"
         style="font-style:normal;font-variant:normal;font-weight:normal;font-stretch:normal;font-family:'Segoe UI';-inkscape-font-specification:'Segoe UI';text-align:center;text-anchor:middle"
         id="path4539" />
      <path
         d="m -78.850586,-53.909131 q -4.433594,0 -7.089844,-2.792969 -2.636718,-2.8125 -2.636718,-7.441406 0,-5.039063 2.753906,-7.871094 2.753906,-2.832031 7.441406,-2.832031 4.472656,0 6.972656,2.753906 2.519532,2.753906 2.519532,7.636719 0,4.785156 -2.714844,7.675781 -2.695313,2.871094 -7.246094,2.871094 z m 0.234375,-18.242188 q -3.085937,0 -4.882812,2.109375 -1.796875,2.089844 -1.796875,5.78125 0,3.554688 1.816406,5.605469 1.816406,2.050781 4.863281,2.050781 3.105469,0 4.765625,-2.011718 1.679688,-2.011719 1.679688,-5.722657 0,-3.75 -1.679688,-5.78125 -1.660156,-2.03125 -4.765625,-2.03125 z"
         style="font-style:normal;font-variant:normal;font-weight:normal;font-stretch:normal;font-family:'Segoe UI';-inkscape-font-specification:'Segoe UI';text-align:center;text-anchor:middle"
         id="path4541" />
      <path
         d="m -53.342773,-71.135694 q -0.839844,-0.644531 -2.421875,-0.644531 -2.050782,0 -3.4375,1.933594 -1.367188,1.933594 -1.367188,5.273437 v 10.195313 h -3.203125 v -20 h 3.203125 v 4.121094 h 0.07813 q 0.683594,-2.109375 2.089844,-3.28125 1.40625,-1.191407 3.144531,-1.191407 1.25,0 1.914063,0.273438 z"
         style="font-style:normal;font-variant:normal;font-weight:normal;font-stretch:normal;font-family:'Segoe UI';-inkscape-font-specification:'Segoe UI';text-align:center;text-anchor:middle"
         id="path4543" />
      <path
         d="m -46.663086,-54.377881 h -3.203125 v -29.609375 h 3.203125 z"
         style="font-style:normal;font-variant:normal;font-weight:normal;font-stretch:normal;font-family:'Segoe UI';-inkscape-font-specification:'Segoe UI';text-align:center;text-anchor:middle"
         id="path4545" />
      <path
         d="m -23.108398,-54.377881 h -3.203125 v -3.398438 h -0.07813 q -2.226563,3.867188 -6.875,3.867188 -3.769532,0 -6.035157,-2.675781 -2.246093,-2.695313 -2.246093,-7.324219 0,-4.960938 2.5,-7.949219 2.5,-2.988281 6.660156,-2.988281 4.121094,0 5.996094,3.242187 h 0.07813 v -12.382812 h 3.203125 z m -3.203125,-9.042969 v -2.949219 q 0,-2.421875 -1.601563,-4.101562 -1.601562,-1.679688 -4.0625,-1.679688 -2.929687,0 -4.609375,2.148438 -1.679687,2.148437 -1.679687,5.9375 0,3.457031 1.601562,5.46875 1.621094,1.992187 4.335938,1.992187 2.675781,0 4.335937,-1.933593 1.679688,-1.933594 1.679688,-4.882813 z"
         style="font-style:normal;font-variant:normal;font-weight:normal;font-stretch:normal;font-family:'Segoe UI';-inkscape-font-specification:'Segoe UI';text-align:center;text-anchor:middle"
         id="path4547" />
      <path
         d="M 11.344727,-79.416944 H 3.2587891 v 25.039063 H -0.02246094 V -79.416944 H -8.0888672 v -2.96875 H 11.344727 Z"
         style="font-style:normal;font-variant:normal;font-weight:normal;font-stretch:normal;font-family:'Segoe UI';-inkscape-font-specification:'Segoe UI';text-align:center;text-anchor:middle"
         id="path4549" />
      <path
         d="m 25.15332,-54.377881 h -3.203125 v -3.125 h -0.07813 q -2.089843,3.59375 -6.152343,3.59375 -2.988282,0 -4.6875,-1.582031 -1.6796879,-1.582032 -1.6796879,-4.199219 0,-5.605469 6.6015629,-6.523438 l 5.996093,-0.839843 q 0,-5.097657 -4.121093,-5.097657 -3.613282,0 -6.523438,2.460938 v -3.28125 q 2.949219,-1.875 6.796875,-1.875 7.050781,0 7.050781,7.460937 z m -3.203125,-10.117188 -4.824218,0.664063 q -2.226563,0.3125 -3.359375,1.113281 -1.132813,0.78125 -1.132813,2.792969 0,1.464844 1.035156,2.402344 1.054688,0.917968 2.792969,0.917968 2.382813,0 3.925781,-1.660156 1.5625,-1.679687 1.5625,-4.238281 z"
         style="font-style:normal;font-variant:normal;font-weight:normal;font-stretch:normal;font-family:'Segoe UI';-inkscape-font-specification:'Segoe UI';text-align:center;text-anchor:middle"
         id="path4551" />
      <path
         d="M 47.301758,-63.5771 H 33.180664 q 0.07813,3.339844 1.796875,5.15625 1.71875,1.816406 4.726563,1.816406 3.378906,0 6.210937,-2.226562 v 3.007812 q -2.636719,1.914063 -6.972656,1.914063 -4.238281,0 -6.660156,-2.714844 -2.421875,-2.734375 -2.421875,-7.675781 0,-4.667969 2.636718,-7.597656 2.65625,-2.949219 6.582032,-2.949219 3.925781,0 6.074218,2.539062 2.148438,2.539063 2.148438,7.050782 z m -3.28125,-2.714844 q -0.01953,-2.773437 -1.347656,-4.316406 -1.308594,-1.542969 -3.652344,-1.542969 -2.265625,0 -3.847656,1.621094 -1.582032,1.621094 -1.953125,4.238281 z"
         style="font-style:normal;font-variant:normal;font-weight:normal;font-stretch:normal;font-family:'Segoe UI';-inkscape-font-specification:'Segoe UI';text-align:center;text-anchor:middle"
         id="path4553" />
      <path
         d="m 68.766602,-54.377881 h -4.492188 l -8.828125,-9.609375 h -0.07813 v 9.609375 h -3.203125 v -29.609375 h 3.203125 v 18.769531 h 0.07813 l 8.398438,-9.160156 h 4.199218 l -9.277343,9.648437 z"
         style="font-style:normal;font-variant:normal;font-weight:normal;font-stretch:normal;font-family:'Segoe UI';-inkscape-font-specification:'Segoe UI';text-align:center;text-anchor:middle"
         id="path4555" />
      <path
         d="m 97.282227,-74.377881 -5.996094,20 H 87.96582 l -4.121093,-14.316406 q -0.234375,-0.820313 -0.3125,-1.855469 h -0.07813 q -0.05859,0.703125 -0.410157,1.816406 l -4.472656,14.355469 h -3.203125 l -6.054687,-20 h 3.359375 l 4.140625,15.039062 q 0.195312,0.683594 0.273437,1.796875 h 0.15625 q 0.05859,-0.859375 0.351563,-1.835937 l 4.609375,-15 h 2.929687 l 4.140625,15.078125 q 0.195313,0.722656 0.292969,1.796875 h 0.15625 q 0.03906,-0.761719 0.332031,-1.796875 l 4.0625,-15.078125 z"
         style="font-style:normal;font-variant:normal;font-weight:normal;font-stretch:normal;font-family:'Segoe UI';-inkscape-font-specification:'Segoe UI';text-align:center;text-anchor:middle"
         id="path4557" />
      <path
         d="m 109.35254,-53.909131 q -4.43359,0 -7.08984,-2.792969 -2.636723,-2.8125 -2.636723,-7.441406 0,-5.039063 2.753903,-7.871094 2.75391,-2.832031 7.44141,-2.832031 4.47266,0 6.97266,2.753906 2.51953,2.753906 2.51953,7.636719 0,4.785156 -2.71485,7.675781 -2.69531,2.871094 -7.24609,2.871094 z m 0.23437,-18.242188 q -3.08593,0 -4.88281,2.109375 -1.79687,2.089844 -1.79687,5.78125 0,3.554688 1.8164,5.605469 1.81641,2.050781 4.86328,2.050781 3.10547,0 4.76563,-2.011718 1.67969,-2.011719 1.67969,-5.722657 0,-3.75 -1.67969,-5.78125 -1.66016,-2.03125 -4.76563,-2.03125 z"
         style="font-style:normal;font-variant:normal;font-weight:normal;font-stretch:normal;font-family:'Segoe UI';-inkscape-font-specification:'Segoe UI';text-align:center;text-anchor:middle"
         id="path4559" />
      <path
         d="m 141.03223,-54.377881 h -3.20313 v -11.40625 q 0,-6.367188 -4.64844,-6.367188 -2.40234,0 -3.98437,1.816407 -1.5625,1.796875 -1.5625,4.550781 v 11.40625 h -3.20313 v -20 h 3.20313 v 3.320312 h 0.0781 q 2.26563,-3.789062 6.5625,-3.789062 3.28125,0 5.01954,2.128906 1.73828,2.109375 1.73828,6.113281 z"
         style="font-style:normal;font-variant:normal;font-weight:normal;font-stretch:normal;font-family:'Segoe UI';-inkscape-font-specification:'Segoe UI';text-align:center;text-anchor:middle"
         id="path4561" />
      <path
         d="m 164.15723,-54.377881 h -3.20313 v -3.398438 h -0.0781 q -2.22657,3.867188 -6.875,3.867188 -3.76953,0 -6.03516,-2.675781 -2.24609,-2.695313 -2.24609,-7.324219 0,-4.960938 2.5,-7.949219 2.5,-2.988281 6.66015,-2.988281 4.1211,0 5.9961,3.242187 h 0.0781 v -12.382812 h 3.20313 z m -3.20313,-9.042969 v -2.949219 q 0,-2.421875 -1.60156,-4.101562 -1.60156,-1.679688 -4.0625,-1.679688 -2.92969,0 -4.60938,2.148438 -1.67968,2.148437 -1.67968,5.9375 0,3.457031 1.60156,5.46875 1.62109,1.992187 4.33594,1.992187 2.67578,0 4.33593,-1.933593 1.67969,-1.933594 1.67969,-4.882813 z"
         style="font-style:normal;font-variant:normal;font-weight:normal;font-stretch:normal;font-family:'Segoe UI';-inkscape-font-specification:'Segoe UI';text-align:center;text-anchor:middle"
         id="path4563" />
      <path
         d="m 179.04004,-53.909131 q -4.43359,0 -7.08984,-2.792969 -2.63672,-2.8125 -2.63672,-7.441406 0,-5.039063 2.7539,-7.871094 2.75391,-2.832031 7.44141,-2.832031 4.47266,0 6.97266,2.753906 2.51953,2.753906 2.51953,7.636719 0,4.785156 -2.71485,7.675781 -2.69531,2.871094 -7.24609,2.871094 z m 0.23437,-18.242188 q -3.08593,0 -4.88281,2.109375 -1.79687,2.089844 -1.79687,5.78125 0,3.554688 1.8164,5.605469 1.81641,2.050781 4.86328,2.050781 3.10547,0 4.76563,-2.011718 1.67969,-2.011719 1.67969,-5.722657 0,-3.75 -1.67969,-5.78125 -1.66016,-2.03125 -4.76563,-2.03125 z"
         style="font-style:normal;font-variant:normal;font-weight:normal;font-stretch:normal;font-family:'Segoe UI';-inkscape-font-specification:'Segoe UI';text-align:center;text-anchor:middle"
         id="path4565" />
    </g>
    <g
       transform="matrix(0.37601378,0,0,0.37601378,28.37522,185.19675)"
       id="g4605">
      <path
         style="opacity:1;fill:#000000;fill-opacity:1;stroke:none;stroke-width:0.1;stroke-linecap:round;stroke-linejoin:round;stroke-miterlimit:4;stroke-dasharray:none;stroke-dashoffset:0;stroke-opacity:1;paint-order:normal"
         id="path4570"
         d="m -37.15077,239.18968 c -0.431429,0.43693 -0.852667,0.89001 -1.218864,1.38411 -0.225999,0.30493 -0.427209,0.63334 -0.630713,0.95326 -0.319538,0.52011 -0.619245,1.05793 -0.788133,1.64815 -0.103243,0.3608 -0.100275,0.43417 -0.1503,0.80003 -0.04553,1.16239 0.661578,2.10994 1.313244,3.0057 0.885407,1.12668 1.89847,2.15123 3.043518,3.0151 0.232098,0.1751 0.474324,0.33636 0.711486,0.50454 1.08768,0.66624 2.177481,1.34629 3.329101,1.89953 0.199189,0.0957 0.403579,0.18016 0.605366,0.27024 1.135365,0.4885 2.34232,0.75303 3.553839,0.96801 1.191227,0.24056 2.392123,0.11226 3.586914,-0.01 1.0609,-0.14857 2.123184,-0.32174 3.164505,-0.57715 0.692284,-0.16981 1.105423,-0.31395 1.790499,-0.53123 1.006563,-0.36602 2.016236,-0.75856 2.939369,-1.30981 0.02263,-0.0135 -0.09307,-0.0122 -0.07331,-0.0297 1.222576,-0.95601 0.641858,-0.46298 1.74626,-1.47425 0.841063,-0.8408 1.587981,-1.78351 2.113828,-2.8551 0.218674,-0.44561 0.278089,-0.65814 0.436812,-1.11475 0.241021,-0.80082 0.3453,-1.65731 0.171126,-2.48431 -0.03822,-0.18149 -0.09968,-0.35729 -0.149516,-0.53594 -0.3945,-1.13763 -1.050102,-2.17705 -1.81094,-3.10599 -0.209143,-0.25535 -0.435297,-0.49629 -0.652945,-0.74443 -1.265649,-1.29132 -2.624729,-2.51758 -4.149587,-3.49897 -0.303366,-0.19524 -0.619152,-0.37048 -0.928728,-0.55572 -1.193578,-0.67926 -2.495023,-1.12586 -3.834821,-1.41114 -0.69517,-0.14802 -1.401247,-0.24669 -2.103095,-0.35507 -1.753203,-0.25332 -3.517765,-0.41711 -5.285986,-0.51593 -0.751628,-0.0181 -1.50737,-0.0812 -2.259001,-0.0326 -0.06826,0.0157 -0.137462,0.0277 -0.204785,0.0471 -0.09079,0.0261 -0.285385,0.10017 -0.369692,0.14423 -0.05707,0.0298 -0.22044,0.13308 -0.164039,0.10201 1.021421,-0.56267 1.341631,-0.81543 0.839819,-0.43852 -0.394176,0.30568 -0.706284,0.65482 -0.989727,1.06194 -0.146066,0.21279 -0.289157,0.42669 -0.411281,0.65413 0,0 -1.265862,0.57205 -1.265862,0.57205 v 0 c 0.114205,-0.23973 0.263041,-0.45606 0.41202,-0.67558 0.08949,-0.1289 0.16923,-0.26481 0.26526,-0.38892 0.205542,-0.26563 0.463691,-0.48325 0.70747,-0.71149 0.571653,-0.4559 0.184928,-0.16011 1.520073,-0.94395 0.234966,-0.13795 0.50305,-0.21044 0.772308,-0.23794 0.737728,-0.0159 1.474825,0.0438 2.210827,0.0854 1.75087,0.13 3.498145,0.3093 5.235371,0.56564 0.672039,0.10356 1.453359,0.21353 2.119392,0.35724 1.347061,0.29063 2.648673,0.76034 3.84494,1.449 0.311387,0.18732 0.629189,0.36437 0.934161,0.56197 1.531352,0.99218 2.885119,2.23604 4.176586,3.51661 0.225197,0.24722 0.459116,0.48678 0.67559,0.74167 0.385266,0.45364 0.65657,0.83955 0.97617,1.33523 0.363338,0.56352 0.695253,1.14695 0.902884,1.788 0.05448,0.18294 0.121144,0.36268 0.163453,0.54881 0.191264,0.84142 0.101579,1.72776 -0.148759,2.54471 -0.16554,0.46907 -0.228281,0.68855 -0.45496,1.14649 -0.539933,1.0908 -1.298869,2.05514 -2.152501,2.91673 -0.535496,0.49415 -1.140698,1.08906 -1.747449,1.4966 -1.564993,1.05117 -3.20884,1.9571 -5.000097,2.55382 -0.746379,0.23592 -1.060933,0.34985 -1.811555,0.53223 -1.053703,0.25603 -2.126851,0.43494 -3.199774,0.58643 -1.225169,0.1329 -2.393176,0.23436 -3.61593,-0.0149 -1.216885,-0.22067 -2.429362,-0.49491 -3.564583,-1.00002 -0.202001,-0.0928 -0.406635,-0.18004 -0.606004,-0.27835 -1.146363,-0.56529 -2.230268,-1.25545 -3.312718,-1.93126 -0.238898,-0.17006 -0.48291,-0.33316 -0.71669,-0.51018 -1.152309,-0.87257 -2.167118,-1.91124 -3.069646,-3.03743 -0.598083,-0.79043 -1.281404,-1.6293 -1.406477,-2.65066 -0.01672,-0.13659 -0.0087,-0.27508 -0.01302,-0.41262 0.046,-0.36666 0.0455,-0.46231 0.142468,-0.82404 0.162591,-0.60654 0.46483,-1.15787 0.79466,-1.68788 0.142565,-0.22444 0.474956,-0.75418 0.626642,-0.96609 0.34576,-0.48305 0.745207,-0.9302 1.149966,-1.36362 0,0 1.28556,-0.54137 1.28556,-0.54137 z" />
      <path
         style="opacity:1;fill:#000000;fill-opacity:1;stroke:none;stroke-width:0.1;stroke-linecap:round;stroke-linejoin:round;stroke-miterlimit:4;stroke-dasharray:none;stroke-dashoffset:0;stroke-opacity:1;paint-order:normal"
         id="path4586"
         d="m -29.895061,237.24886 c 1.397082,0.0898 2.797971,0.099 4.197437,0.11002 1.288701,0.0253 2.576565,-0.004 3.862731,-0.0845 0.759037,-0.0307 1.514552,-0.0937 2.266855,-0.19752 0.363394,-0.0507 0.727974,-0.092 1.094507,-0.10987 0.03278,-0.007 0.06555,-0.0145 0.09833,-0.0218 0,0 -1.120606,0.84006 -1.120606,0.84006 v 0 c -0.03454,0.003 -0.06908,0.006 -0.103625,0.009 -0.357128,0.0192 -0.712821,0.0566 -1.067371,0.10337 -0.744179,0.092 -1.491941,0.1343 -2.240968,0.16593 -1.27525,0.0635 -2.551196,0.082 -3.827898,0.0482 -1.428229,-0.0198 -2.856571,-0.0407 -4.284922,-0.0447 0,0 1.125533,-0.81775 1.125533,-0.81775 z" />
      <path
         style="opacity:1;fill:#000000;fill-opacity:1;stroke:none;stroke-width:0.1;stroke-linecap:round;stroke-linejoin:round;stroke-miterlimit:4;stroke-dasharray:none;stroke-dashoffset:0;stroke-opacity:1;paint-order:normal"
         id="path4588"
         d="m -26.457028,239.15387 c 0.318702,0.042 0.639907,0.0597 0.960956,0.0709 0.248195,-0.0129 0.488876,0.0232 0.733129,0.0578 0.202588,0.0697 0.412232,0.10387 0.624786,0.12341 0.261889,0.0161 0.524438,0.0162 0.78672,0.0161 0.26214,2.6e-4 0.524279,-2.7e-4 0.786417,-0.001 0.234153,2.7e-4 0.468306,-5.3e-4 0.702458,-10e-4 0.195248,-2.7e-4 0.390496,-5.3e-4 0.585745,-5.3e-4 0.125942,-2e-5 0.063,-2e-5 0.188836,-2e-5 0,0 -1.134087,0.82396 -1.134087,0.82396 v 0 c -0.125808,-2e-5 -0.06288,-1e-5 -0.188778,-3e-5 -0.194764,-5e-5 -0.389528,-1.4e-4 -0.584291,-5.2e-4 -0.233408,-5.3e-4 -0.466817,-0.001 -0.700225,-2.7e-4 -0.261921,-2.6e-4 -0.523839,2.2e-4 -0.78576,-4e-5 -0.266306,-0.002 -0.53308,-0.003 -0.798572,-0.026 -0.212202,-0.0277 -0.418652,-0.0768 -0.626185,-0.12765 -0.239132,-0.0343 -0.478015,-0.0481 -0.719745,-0.0503 -0.326003,-0.0162 -0.651266,-0.0419 -0.976082,-0.0742 0,0 1.144678,-0.8101 1.144678,-0.8101 z" />
      <path
         style="opacity:1;fill:#000000;fill-opacity:1;stroke:none;stroke-width:0.1;stroke-linecap:round;stroke-linejoin:round;stroke-miterlimit:4;stroke-dasharray:none;stroke-dashoffset:0;stroke-opacity:1;paint-order:normal"
         id="path4590"
         d="m -26.636025,241.79946 c 0.395497,0.0421 0.792089,0.063 1.187741,0.10446 0.419725,0.0459 0.841808,0.0594 1.263626,0.0683 0.386891,0.004 0.77383,0.005 1.160739,0.003 0.360452,2.5e-4 0.720907,-2e-4 1.081357,-0.001 0.352065,2.5e-4 0.704132,-9e-5 1.056196,0.001 0.373284,2.4e-4 0.746565,2.7e-4 1.119849,-0.001 0.287102,-0.002 0.574209,-0.001 0.861313,-0.002 0.209796,-0.0158 0.428192,0.0276 0.634035,-0.0207 0,0 -1.124224,0.83929 -1.124224,0.83929 v 0 c -0.2129,0.008 -0.42607,2.7e-4 -0.63907,0.002 -0.285353,-8e-4 -0.570708,-2.7e-4 -0.856059,-0.002 -0.372354,-0.001 -0.744705,-0.001 -1.11706,-0.001 -0.353115,0.001 -0.706233,7.9e-4 -1.05935,0.001 -0.359846,-8e-4 -0.719698,-8e-4 -1.079544,6e-5 -0.385789,-0.001 -0.771613,-1.4e-4 -1.157327,-0.009 -0.424309,-0.009 -0.848483,-0.0292 -1.270431,-0.0771 -0.400711,-0.0402 -0.802698,-0.0594 -1.203843,-0.0945 0,0 1.142052,-0.81059 1.142052,-0.81059 z" />
      <path
         style="opacity:1;fill:#000000;fill-opacity:1;stroke:none;stroke-width:0.1;stroke-linecap:round;stroke-linejoin:round;stroke-miterlimit:4;stroke-dasharray:none;stroke-dashoffset:0;stroke-opacity:1;paint-order:normal"
         id="path4592"
         d="m -23.558434,245.2651 c 0.03159,0.3081 0.05685,0.61655 0.07042,0.92598 0.01024,0.25639 0.01553,0.51296 0.01539,0.76955 0.01694,0.21394 -0.02043,0.4223 -0.05189,0.63247 -0.01471,0.2066 -0.0726,0.40226 -0.149322,0.59316 -0.09167,0.19347 -0.157371,0.39589 -0.259294,0.58461 -0.101003,0.22601 -0.261366,0.39772 -0.461188,0.53894 -0.819778,0.52049 -1.370148,0.88807 -2.266054,0.99713 -0.419658,0.0509 -0.845087,0.0259 -1.262832,-0.0304 -0.336349,-0.0504 -0.672397,-0.13743 -0.990973,-0.25731 -0.200687,-0.0776 -0.394822,-0.17403 -0.583153,-0.27811 -0.02819,-0.021 -0.05638,-0.042 -0.08457,-0.063 0,0 1.182069,-0.75259 1.182069,-0.75259 v 0 c 0.02484,0.0164 0.0497,0.0327 0.07456,0.0491 0.185423,0.0959 0.371542,0.1923 0.56782,0.26439 0.312473,0.1095 0.634352,0.19854 0.96379,0.23761 0.412286,0.0446 0.828405,0.0658 1.240193,0.002 0.195021,-0.0327 0.382683,-0.07 0.56979,-0.13571 0.472684,-0.16592 1.252902,-0.66251 -0.711224,0.46978 0.205777,-0.10511 0.389256,-0.25534 0.485465,-0.47017 0.03661,-0.065 0.0816,-0.12536 0.113528,-0.19273 0.05842,-0.12326 0.07811,-0.26362 0.146149,-0.38269 0.09508,-0.16988 0.152417,-0.36085 0.168872,-0.55514 0.02646,-0.20568 0.08056,-0.40688 0.06279,-0.61599 -0.0012,-0.25588 0.0012,-0.51182 -0.0071,-0.76761 -0.0119,-0.30441 -0.02833,-0.60925 -0.0747,-0.9107 0,0 1.241479,-0.65214 1.241479,-0.65214 z" />
      <path
         style="opacity:1;fill:#000000;fill-opacity:1;stroke:none;stroke-width:0.1;stroke-linecap:round;stroke-linejoin:round;stroke-miterlimit:4;stroke-dasharray:none;stroke-dashoffset:0;stroke-opacity:1;paint-order:normal"
         id="path4594"
         d="m -21.453748,244.64055 c 0.160719,0.22369 0.371272,0.38819 0.626955,0.4866 0.190428,0.0599 0.390831,0.0605 0.588398,0.0615 0.233721,-0.002 0.467449,-0.002 0.701176,-0.001 0.319547,6.1e-4 0.639094,-5.8e-4 0.95864,-0.002 0.250213,-0.001 0.500427,-0.002 0.750642,-9.3e-4 0.224566,0.0455 0.451125,0.10449 0.670981,0.17252 0.20123,0.093 0.412015,0.16869 0.60842,0.27111 0.172353,0.1157 0.359287,0.20761 0.55916,0.26413 0.134884,0.0212 0.278945,0.0581 0.416805,0.0455 0.02334,-0.002 0.249113,-0.0565 0.267298,-0.0608 -0.07099,0.064 0.336698,-0.18751 0.252948,-0.13987 -0.35817,0.20372 -1.430492,0.8187 -1.071534,0.61637 0.438003,-0.24689 0.872641,-0.4997 1.308677,-0.75004 0.03617,-0.0208 0.144126,-0.084 0.107942,-0.0633 -0.363621,0.20849 -0.726839,0.41769 -1.090259,0.62653 0.144507,-0.113 0.306327,-0.20829 0.434154,-0.34085 0.418985,-0.40739 -0.26052,0.24484 1.317648,-0.78989 1.664763,-1.09152 -1.653241,0.976 -1.088387,0.62418 0,0 1.301846,-0.5317 1.301846,-0.5317 v 0 c -0.345764,0.42925 -0.126494,0.17092 -1.307425,0.78967 -0.367656,0.19264 1.593311,-0.94209 1.074312,-0.62957 -0.07574,0.0724 -0.03943,0.0325 -0.107787,0.12079 -0.09459,0.0982 -0.236722,0.14075 -0.32208,0.25148 -0.43265,0.2526 -0.864878,0.50593 -1.297951,0.75781 -0.03593,0.0209 -0.144973,0.0814 -0.109047,0.0605 0.359501,-0.20927 1.442433,-0.82936 1.07979,-0.62559 -0.440933,0.24777 -0.874606,0.50828 -1.314674,0.75757 -0.114493,0.0649 -0.153769,0.0694 -0.278851,0.10765 -0.24666,0.043 -0.491257,0.0413 -0.731191,-0.0391 -0.2009,-0.0719 -0.389042,-0.17121 -0.572005,-0.28069 -0.194058,-0.0907 -0.38924,-0.18145 -0.591669,-0.25193 -0.212986,-0.0563 -0.425666,-0.13167 -0.646711,-0.14182 -0.249379,7.1e-4 -0.498756,4.2e-4 -0.748134,-8.2e-4 -0.319229,-6.6e-4 -0.638467,-0.001 -0.957688,0.001 -0.236847,0.002 -0.473733,0.008 -0.710583,0.004 -0.209927,-0.008 -0.420894,-0.0243 -0.616328,-0.10864 -0.263136,-0.12717 -0.480939,-0.31251 -0.666175,-0.53885 0,0 1.202687,-0.72209 1.202687,-0.72209 z" />
      <path
         style="opacity:1;fill:#000000;fill-opacity:1;stroke:none;stroke-width:0.1;stroke-linecap:round;stroke-linejoin:round;stroke-miterlimit:4;stroke-dasharray:none;stroke-dashoffset:0;stroke-opacity:1;paint-order:normal"
         id="path4596"
         d="m -29.701392,240.18742 c 0.01617,0.40191 0.06096,0.80083 0.108956,1.19983 0.0434,0.32834 0.05688,0.65938 0.06603,0.99011 0.0056,0.28941 0.0044,0.57889 0.0048,0.86834 3.2e-5,0.27102 -7.93e-4,0.54204 2.36e-4,0.81307 0.0019,0.23985 -5.8e-5,0.47971 -1.27e-4,0.71957 5.29e-4,0.22155 0.0013,0.44309 0.0019,0.66463 0.0091,0.26326 -0.02756,0.52414 -0.05564,0.78515 -0.0065,0.21025 -0.06694,0.40823 -0.137779,0.60394 -0.04823,0.14009 -0.129225,0.26793 -0.260098,0.34385 -0.426032,0.24715 -0.854702,0.48972 -1.282052,0.73458 -0.203261,0.0711 -0.421553,0.0742 -0.634601,0.0792 -0.253068,0.003 -0.5062,0.003 -0.75929,0.002 -0.226772,-6.9e-4 -0.453544,-3.2e-4 -0.680315,-1e-4 -0.167807,-0.0283 -0.329825,-0.064 -0.48904,-0.12238 0,0 1.163939,-0.78719 1.163939,-0.78719 v 0 c 0.147344,0.049 0.303501,0.0763 0.458213,0.0865 0.225758,6.7e-4 0.451514,0.002 0.677273,0.003 0.252097,5e-5 0.504324,0.003 0.756274,-0.007 0.206452,-0.013 0.41683,-0.0272 0.601668,-0.12996 -0.373124,0.21702 -0.74625,0.43404 -1.119373,0.65106 0.06983,-0.0401 0.151339,-0.0705 0.208838,-0.12872 0.03939,-0.0399 0.06017,-0.0815 0.08829,-0.12894 0.06325,-0.19065 0.155075,-0.37256 0.157401,-0.57853 0.02852,-0.25579 0.07244,-0.51113 0.05819,-0.76935 5.29e-4,-0.22221 0.0013,-0.44441 0.0019,-0.66661 -6.4e-5,-0.23987 -0.0021,-0.47975 6.9e-5,-0.71962 0.0013,-0.27138 7.93e-4,-0.54275 0.0016,-0.81414 0.0011,-0.28877 0.0013,-0.57757 -0.0019,-0.86633 -0.005,-0.32782 -0.01651,-0.65578 -0.05364,-0.98178 -0.0447,-0.39835 -0.08618,-0.79646 -0.121748,-1.19566 0,0 1.23979,-0.64735 1.23979,-0.64735 z" />
    </g>
  </g>
</svg>
